<?xml version="1.0" encoding="UTF-8" standalone="no"?>
<!-- Created with Inkscape (http://www.inkscape.org/) -->

<svg
   xmlns:dc="http://purl.org/dc/elements/1.1/"
   xmlns:cc="http://creativecommons.org/ns#"
   xmlns:rdf="http://www.w3.org/1999/02/22-rdf-syntax-ns#"
   xmlns:svg="http://www.w3.org/2000/svg"
   xmlns="http://www.w3.org/2000/svg"
   xmlns:sodipodi="http://sodipodi.sourceforge.net/DTD/sodipodi-0.dtd"
   xmlns:inkscape="http://www.inkscape.org/namespaces/inkscape"
   width="22"
   height="22"
   viewBox="0 0 5.8208334 5.8208334"
   version="1.1"
   id="svg8"
   inkscape:version="0.92.3 (2405546, 2018-03-11)"
   sodipodi:docname="bellschedulernotifier.svg">
  <defs
     id="defs2" />
  <sodipodi:namedview
     id="base"
     pagecolor="#ffffff"
     bordercolor="#666666"
     borderopacity="1.0"
     inkscape:pageopacity="0.0"
     inkscape:pageshadow="2"
     inkscape:zoom="7.9195959"
     inkscape:cx="10.593856"
     inkscape:cy="16.852138"
     inkscape:document-units="px"
     inkscape:current-layer="layer1"
     showgrid="false"
     units="px"
     inkscape:window-width="1360"
     inkscape:window-height="614"
     inkscape:window-x="0"
     inkscape:window-y="32"
     inkscape:window-maximized="1" />
  <metadata
     id="metadata5">
    <rdf:RDF>
      <cc:Work
         rdf:about="">
        <dc:format>image/svg+xml</dc:format>
        <dc:type
           rdf:resource="http://purl.org/dc/dcmitype/StillImage" />
        <dc:title></dc:title>
      </cc:Work>
    </rdf:RDF>
  </metadata>
  <g
     inkscape:label="Capa 1"
     inkscape:groupmode="layer"
     id="layer1"
     transform="translate(0,-291.17918)">
    <g
       transform="matrix(0.0951198,0,0,0.09511978,-7.3987321,291.98649)"
       id="bellschedulernotifier">
      <path
         id="path5727"
         d="m 98.7182,22.142695 h 22.22007 V 44.362764 H 98.7182 Z"
         inkscape:connector-curvature="0"
         style="fill:none;stroke-width:0.92583621" />
      <g
         id="g5665"
         transform="matrix(1.206848,0,0,1.206848,61.844572,25.055264)"
         style="fill:#000000;fill-opacity:1">
        <path
           style="fill:#232627;fill-opacity:1"
           sodipodi:nodetypes="csccccssscscccccc"
           inkscape:connector-curvature="0"
           d="m 33.8117,10.814623 c -0.624099,1.890782 0.400763,3.92555 2.291546,4.549648 1.890783,0.624099 3.925549,-0.400763 4.549649,-2.291547 z M 51.435512,8.6449616 c 3.26764,-8.77696935 6.305671,-19.1013076 -1.995213,-24.5046936 l 0.408491,-1.237603 c 0.499283,-1.512621 -0.318301,-3.135869 -1.830936,-3.635153 -1.51262,-0.49928 -3.135871,0.318319 -3.635146,1.83094 l -0.408497,1.237607 c -5.633937,-0.487185 -11.044676,2.911654 -12.8886,8.4980445 L 27.783562,0.83805675 22.936698,3.2793019 22.335294,5.1013295 53.275369,15.313854 53.87678,13.491827 Z"
           id="path5729" />
      </g>
      <g
         style="fill:#000000"
         id="g6376"
         transform="matrix(0.91247669,0,0,0.91247669,101.40346,10.888159)">
        <path
           id="path6366"
           d="M 0,0 H 24 V 24 H 0 Z"
           inkscape:connector-curvature="0"
           style="fill:none" />
        <path
           id="path6368"
           d="m 22,5.72 -4.6,-3.86 -1.29,1.53 4.6,3.86 z M 7.88,3.39 6.6,1.86 2,5.71 3.29,7.24 Z M 12.5,8 H 11 v 6 l 4.75,2.85 0.75,-1.23 -4,-2.37 z M 12,4 c -4.97,0 -9,4.03 -9,9 0,4.97 4.02,9 9,9 4.97,0 9,-4.03 9,-9 0,-4.97 -4.03,-9 -9,-9 z m 0,16 C 8.13,20 5,16.87 5,13 5,9.13 8.13,6 12,6 c 3.87,0 7,3.13 7,7 0,3.87 -3.13,7 -7,7 z"
           inkscape:connector-curvature="0"
           style="fill:#ffffff;fill-opacity:1" />
      </g>
    </g>
  </g>
</svg>
